<svg width="2571" height="944" xmlns="http://www.w3.org/2000/svg" xmlns:xlink="http://www.w3.org/1999/xlink" xml:space="preserve" overflow="hidden"><g transform="translate(-27 -1283)"><g><path d="M28.9999 1357.5C28.9999 1318.01 61.0115 1286 100.5 1286 139.988 1286 172 1318.01 172 1357.5 172 1396.99 139.988 1429 100.5 1429 61.0115 1429 28.9999 1396.99 28.9999 1357.5Z" fill="#AFABAB" fill-rule="evenodd" fill-opacity="1"/><path d="M28.9999 2151.5C28.9999 2112.01 61.0115 2080 100.5 2080 139.988 2080 172 2112.01 172 2151.5 172 2190.99 139.988 2223 100.5 2223 61.0115 2223 28.9999 2190.99 28.9999 2151.5Z" fill="#AFABAB" fill-rule="evenodd" fill-opacity="1"/><path d="M2452 1759.5C2452 1720.01 2484.01 1688 2523.5 1688 2562.99 1688 2595 1720.01 2595 1759.5 2595 1798.99 2562.99 1831 2523.5 1831 2484.01 1831 2452 1798.99 2452 1759.5Z" fill="#AFABAB" fill-rule="evenodd" fill-opacity="1"/><path d="M1679 1357.5C1679 1318.01 1711.01 1286 1750.5 1286 1789.99 1286 1822 1318.01 1822 1357.5 1822 1396.99 1789.99 1429 1750.5 1429 1711.01 1429 1679 1396.99 1679 1357.5Z" fill="#AFABAB" fill-rule="evenodd" fill-opacity="1"/><path d="M1679 2151.5C1679 2112.01 1711.01 2080 1750.5 2080 1789.99 2080 1822 2112.01 1822 2151.5 1822 2190.99 1789.99 2223 1750.5 2223 1711.01 2223 1679 2190.99 1679 2151.5Z" fill="#AFABAB" fill-rule="evenodd" fill-opacity="1"/><rect x="1845" y="1502" width="130" height="519" fill="#000000" fill-opacity="1"/><rect x="99" y="1358" width="1779" height="794" fill="#4472C4" fill-opacity="1"/><path d="M2521 1458 2521 2061C2521 2114.02 2478.02 2157 2425 2157L1945 2157 1945 1362 2425 1362C2478.02 1362 2521 1404.98 2521 1458Z" fill="#4472C4" fill-rule="evenodd" fill-opacity="1"/><rect x="96.9999" y="1698" width="1779" height="130" fill="#FFFFFF" fill-opacity="1"/><rect x="95.9999" y="1715" width="1779" height="13.0001" fill="#4472C4" fill-opacity="1"/><rect x="98" y="1798" width="1779" height="12.9998" fill="#4472C4" fill-opacity="1"/><path d="M0 91.0001 6.69867 0 642.301 0 649 91.0001Z" fill="#FFFFFF" fill-rule="evenodd" fill-opacity="1" transform="matrix(1.83697e-16 1 1 -1.83697e-16 2208 1435)"/><path d="M2032 1763.5C2032 1724.01 2064.01 1692 2103.5 1692 2142.99 1692 2175 1724.01 2175 1763.5 2175 1802.99 2142.99 1835 2103.5 1835 2064.01 1835 2032 1802.99 2032 1763.5Z" fill="#AFABAB" fill-rule="evenodd" fill-opacity="1"/></g></g></svg>