<svg width="2557" height="1022" xmlns="http://www.w3.org/2000/svg" xmlns:xlink="http://www.w3.org/1999/xlink" xml:space="preserve" overflow="hidden"><g transform="translate(-32 -123)"><g><g><g><g><path d="M1147.37 356.917 1172.68 255.678 1253.08 255.678 1278.39 356.917Z" fill="#AFABAB" fill-rule="evenodd" fill-opacity="1" transform="matrix(1 0 0 1.00366 1307.82 515.583)"/><path d="M0 101.239 25.3098 0 105.705 0 131.015 101.239Z" fill="#AFABAB" fill-rule="evenodd" fill-opacity="1" transform="matrix(1 0 0 -1.00366 2455.19 873.804)"/><path d="M1153.73 285.838C1153.73 283.433 1155.68 281.484 1158.08 281.484L1268.08 281.484C1270.48 281.484 1272.43 283.433 1272.43 285.838L1272.43 328.742C1272.43 331.146 1270.48 333.096 1268.08 333.096L1158.08 333.096C1155.68 333.096 1153.73 331.146 1153.73 328.742Z" fill="#000000" fill-rule="evenodd" fill-opacity="1" transform="matrix(1 0 0 1.00366 1307.82 515.583)"/><path d="M0 1.58797 0.396985 0 122.281 0 122.678 1.58797Z" fill="#FFFFFF" fill-rule="evenodd" fill-opacity="1" transform="matrix(1 0 0 -1.00366 2459.56 790.525)"/><path d="M0 1.58797 0.397059 0 125.06 0 125.457 1.58797Z" fill="#FFFFFF" fill-rule="evenodd" fill-opacity="1" transform="matrix(1 0 0 -1.00366 2458.37 786.54)"/></g></g></g><rect x="1874" y="811" width="78" height="130" fill="#000000" fill-opacity="1"/><rect x="101" y="229" width="1779" height="794" fill="#4472C4" fill-opacity="1"/><path d="M2524 737.536 2524 951.464C2524 990.972 2491.97 1023 2452.46 1023L1947 1023 1947 666 2452.46 666C2491.97 666 2524 698.027 2524 737.536Z" fill="#4472C4" fill-rule="evenodd" fill-opacity="1"/><path d="M2328 385.635 2328 509.364C2328 596.976 2256.98 668 2169.36 668L1946.98 668 1946.98 227 2169.36 227C2256.98 227 2328 298.023 2328 385.635Z" fill="#4472C4" fill-rule="evenodd" fill-opacity="1"/><path d="M2107 676 2126.92 346 2490 676Z" fill="#4472C4" fill-rule="evenodd" fill-opacity="1"/><path d="M2052 588.991 2103.93 336 2320.07 336 2372 588.991Z" fill="#4472C4" fill-rule="evenodd" fill-opacity="1"/><path d="M2060 1026.22C2059.37 929.574 2132.72 850.679 2223.85 850.004 2314.97 849.33 2389.36 927.131 2390 1023.78 2390 1024.15 2390 1024.52 2390 1024.89L2225 1025Z" fill="#FFFFFF" fill-rule="evenodd" fill-opacity="1"/><path d="M2103 1017.5C2103 949.293 2158.29 894 2226.5 894 2294.71 894 2350 949.293 2350 1017.5 2350 1085.71 2294.71 1141 2226.5 1141 2158.29 1141 2103 1085.71 2103 1017.5Z" fill="#000000" fill-rule="evenodd" fill-opacity="1"/><path d="M2257 405.424 2257 444.577C2257 498.382 2213.38 542 2159.58 542L2011 542 2011 308 2159.58 308C2213.38 308 2257 351.618 2257 405.424Z" fill="#FFFFFF" fill-rule="evenodd" fill-opacity="1"/><path d="M2079 542 2112.46 379 2251.54 379 2285 542Z" fill="#FFFFFF" fill-rule="evenodd" fill-opacity="1"/><rect x="101" y="696" width="1779" height="78.0001" fill="#FFFFFF" fill-opacity="1"/><rect x="99" y="794" width="1779" height="13.0001" fill="#FFFFFF" fill-opacity="1"/><rect x="2014" y="644" width="130" height="25.0001" fill="#FFFFFF" fill-opacity="1"/><path d="M625.004 1028.22C624.368 931.574 697.723 852.679 788.848 852.004 879.973 851.33 954.36 929.131 954.996 1025.78 954.998 1026.15 954.999 1026.52 955 1026.89L790 1027Z" fill="#FFFFFF" fill-rule="evenodd" fill-opacity="1"/><path d="M668 1019C668 951.069 723.293 896 791.5 896 859.707 896 915 951.069 915 1019 915 1086.93 859.707 1142 791.5 1142 723.293 1142 668 1086.93 668 1019Z" fill="#000000" fill-rule="evenodd" fill-opacity="1"/><path d="M327.004 1028.22C326.368 931.574 399.723 852.679 490.848 852.004 581.973 851.33 656.36 929.131 656.996 1025.78 656.998 1026.15 656.999 1026.52 657 1026.89L492 1027Z" fill="#FFFFFF" fill-rule="evenodd" fill-opacity="1"/><path d="M370 1019C370 951.069 425.293 896 493.5 896 561.707 896 617 951.069 617 1019 617 1086.93 561.707 1142 493.5 1142 425.293 1142 370 1086.93 370 1019Z" fill="#000000" fill-rule="evenodd" fill-opacity="1"/><g><g><g><path d="M1151.57 358.222 1176.97 256.613 1257.66 256.613 1283.06 358.222Z" fill="#AFABAB" fill-rule="evenodd" fill-opacity="1" transform="matrix(1.00385 0 0 1 -1118.8 647.583)"/><path d="M0 101.609 25.4023 0 106.092 0 131.494 101.609Z" fill="#AFABAB" fill-rule="evenodd" fill-opacity="1" transform="matrix(1.00385 0 0 -1 37.2001 1005.8)"/><path d="M1157.94 286.883C1157.94 284.469 1159.9 282.513 1162.32 282.513L1272.71 282.513C1275.13 282.513 1277.09 284.469 1277.09 286.883L1277.09 329.944C1277.09 332.357 1275.13 334.314 1272.71 334.314L1162.32 334.314C1159.9 334.314 1157.94 332.357 1157.94 329.944Z" fill="#000000" fill-rule="evenodd" fill-opacity="1" transform="matrix(1.00385 0 0 1 -1118.8 647.583)"/><path d="M0 1.59378 0.398437 0 122.728 0 123.126 1.59378Z" fill="#FFFFFF" fill-rule="evenodd" fill-opacity="1" transform="matrix(1.00385 0 0 -1 41.6001 922.525)"/><path d="M0 1.59378 0.398511 0 125.517 0 125.915 1.59378Z" fill="#FFFFFF" fill-rule="evenodd" fill-opacity="1" transform="matrix(1.00385 0 0 -1 40.4001 918.54)"/></g></g></g><g><g><g><path d="M1151.57 358.222 1176.97 256.613 1257.66 256.613 1283.06 358.222Z" fill="#AFABAB" fill-rule="evenodd" fill-opacity="1" transform="matrix(1.00385 0 0 1 527.199 647.583)"/><path d="M0 101.609 25.4023 0 106.092 0 131.494 101.609Z" fill="#AFABAB" fill-rule="evenodd" fill-opacity="1" transform="matrix(1.00385 0 0 -1 1683.2 1005.8)"/><path d="M1157.94 286.883C1157.94 284.469 1159.9 282.513 1162.32 282.513L1272.71 282.513C1275.13 282.513 1277.09 284.469 1277.09 286.883L1277.09 329.944C1277.09 332.357 1275.13 334.314 1272.71 334.314L1162.32 334.314C1159.9 334.314 1157.94 332.357 1157.94 329.944Z" fill="#000000" fill-rule="evenodd" fill-opacity="1" transform="matrix(1.00385 0 0 1 527.199 647.583)"/><path d="M0 1.59378 0.398437 0 122.728 0 123.126 1.59378Z" fill="#FFFFFF" fill-rule="evenodd" fill-opacity="1" transform="matrix(1.00385 0 0 -1 1687.6 922.525)"/><path d="M0 1.59378 0.398511 0 125.517 0 125.915 1.59378Z" fill="#FFFFFF" fill-rule="evenodd" fill-opacity="1" transform="matrix(1.00385 0 0 -1 1686.4 918.54)"/></g></g></g><g><g><g><path d="M1151.57 358.222 1176.97 256.613 1257.66 256.613 1283.06 358.222Z" fill="#AFABAB" fill-rule="evenodd" fill-opacity="1" transform="matrix(1.00385 0 0 1 895.203 -130.417)"/><path d="M0 101.609 25.4023 0 106.092 0 131.494 101.609Z" fill="#AFABAB" fill-rule="evenodd" fill-opacity="1" transform="matrix(1.00385 0 0 -1 2051.2 227.805)"/><path d="M1157.94 286.883C1157.94 284.469 1159.9 282.513 1162.32 282.513L1272.71 282.513C1275.13 282.513 1277.09 284.469 1277.09 286.883L1277.09 329.944C1277.09 332.357 1275.13 334.314 1272.71 334.314L1162.32 334.314C1159.9 334.314 1157.94 332.357 1157.94 329.944Z" fill="#000000" fill-rule="evenodd" fill-opacity="1" transform="matrix(1.00385 0 0 1 895.203 -130.417)"/><path d="M0 1.59378 0.398437 0 122.728 0 123.126 1.59378Z" fill="#FFFFFF" fill-rule="evenodd" fill-opacity="1" transform="matrix(1.00385 0 0 -1 2055.6 144.525)"/><path d="M0 1.59378 0.398511 0 125.517 0 125.915 1.59378Z" fill="#FFFFFF" fill-rule="evenodd" fill-opacity="1" transform="matrix(1.00385 0 0 -1 2054.4 140.54)"/></g></g></g></g></g></svg>